# xmcd
#
# Track frame offsets: 
#        183
#        15108
#        29225
#        46178
#        74933
#        90280
#        125940
#        141373
#        170795
#        190088
#        208300
#        224303
#        248553
#        271035
#        284660
#        313965
#
# Disc length: 4441 seconds
#
# Revision: 0
# Processed by: cddbd v1.5.2PL0 Copyright (c) Steve Scherf et al.
# Submitted via: ExactAudioCopy v0.95a5
#
DISCID=01115710
DTITLE=Little Milton - Waiting For Little Milton - Blues 'n' Soul
DYEAR=1992
DGENRE=Blues
TTITLE0=It's Amazing (Waiting For Little Milton )
TTITLE1=Who Can Handle Me is You  (Waiting For Little Milton )
TTITLE2=Woman, You Don't Have To Be So Cold  (Waiting For Little Milto
TTITLE2=n )
TTITLE3=The Thrill is Gone  (Waiting For Little Milton )
TTITLE4=Monologue 1  (Waiting For Little Milton )
TTITLE5=That's How Strong My Love is  (Waiting For Little Milton )
TTITLE6=What It Is  (Waiting For Little Milton )
TTITLE7=Little Bluebird  (Waiting For Little Milton )
TTITLE8=Woman Across The River ( Blues 'n' Soul )
TTITLE9=Behind Closed Doors  ( Blues 'n' Soul )
TTITLE10=Sweet Woman Of Mine  ( Blues 'n' Soul )
TTITLE11=Worried Dream  ( Blues 'n' Soul )
TTITLE12=How Could You Do It To Me  ( Blues 'n' Soul )
TTITLE13=You're No Good  ( Blues 'n' Soul )
TTITLE14=Tain't Nobody's Biz-ness If I Do  ( Blues 'n' Soul )
TTITLE15=Hard Luck Blues  ( Blues 'n' Soul )
EXTD=
EXTT0=
EXTT1=
EXTT2=
EXTT3=
EXTT4=
EXTT5=
EXTT6=
EXTT7=
EXTT8=
EXTT9=
EXTT10=
EXTT11=
EXTT12=
EXTT13=
EXTT14=
EXTT15=
PLAYORDER=
